<svg width="24" height="24" viewBox="0 0 24 24" fill="none" xmlns="http://www.w3.org/2000/svg">
<g id="Icons/24px/google">
<path id="Vector" d="M17.6375 10.9047H11.9922V13.225H15.2172C15.0781 13.975 14.6562 14.6094 14.0203 15.0344C13.4828 15.3938 12.7969 15.6062 11.9906 15.6062C10.4297 15.6062 9.10938 14.5516 8.6375 13.1344C8.51875 12.775 8.45 12.3906 8.45 11.9953C8.45 11.6 8.51875 11.2156 8.6375 10.8562C9.11094 9.44062 10.4313 8.38594 11.9922 8.38594C12.8719 8.38594 13.6609 8.68906 14.2828 9.28281L16.0016 7.5625C14.9625 6.59375 13.6078 6 11.9922 6C9.65 6 7.62344 7.34375 6.6375 9.30312C6.23125 10.1125 6 11.0281 6 11.9969C6 12.9656 6.23125 13.8797 6.6375 14.6891C7.62344 16.6484 9.65 17.9922 11.9922 17.9922C13.6109 17.9922 14.9672 17.4547 15.9578 16.5391C17.0906 15.4953 17.7453 13.9578 17.7453 12.1313C17.7453 11.7063 17.7078 11.2984 17.6375 10.9047Z" fill="white"/>
</g>
</svg>
