<svg width="24" height="12" viewBox="0 0 24 12" fill="none" xmlns="http://www.w3.org/2000/svg">
<path id="Union" fill-rule="evenodd" clip-rule="evenodd" d="M0.749982 1.49997H23.25C23.664 1.49997 24 1.16394 24 0.749983C24 0.335965 23.664 0 23.25 0H0.749982C0.335965 0 0 0.336027 0 0.749983C0 1.16394 0.336027 1.49997 0.749982 1.49997ZM23.25 5.25H0.749982C0.335965 5.25 0 5.58603 0 5.99999C0 6.41394 0.336027 6.74997 0.749982 6.74997H23.25C23.664 6.74997 24 6.41394 24 5.99999C24 5.58603 23.664 5.25 23.25 5.25ZM8.24999 10.5H23.25C23.664 10.5 24.0001 10.836 24 11.25C24 11.6639 23.664 12 23.25 12H8.24999C7.83604 12 7.50001 11.664 7.50001 11.25C7.50001 10.836 7.83597 10.5 8.24999 10.5Z" fill="#6C6C6C"/>
</svg>
