<svg width="24" height="24" viewBox="0 0 24 24" fill="none" xmlns="http://www.w3.org/2000/svg">
<g id="Icons/24px/twitter">
<path id="Vector" d="M18.0016 8.25469C17.5234 8.46094 17.0031 8.60938 16.4672 8.66719C17.0236 8.33662 17.4403 7.81438 17.6391 7.19844C17.1169 7.50905 16.5449 7.72686 15.9484 7.84219C15.6991 7.57567 15.3976 7.36335 15.0627 7.21846C14.7277 7.07356 14.3665 6.9992 14.0016 7.00001C12.525 7.00001 11.3375 8.19688 11.3375 9.66563C11.3375 9.87188 11.3625 10.0781 11.4031 10.2766C9.19219 10.1609 7.22031 9.10469 5.90938 7.48751C5.67051 7.8955 5.54533 8.36005 5.54687 8.83282C5.54687 9.75782 6.01719 10.5734 6.73437 11.0531C6.31173 11.0365 5.89897 10.9203 5.52969 10.7141V10.7469C5.52969 12.0422 6.44531 13.1156 7.66563 13.3625C7.4365 13.422 7.20079 13.4525 6.96406 13.4531C6.79063 13.4531 6.62656 13.4359 6.46094 13.4125C6.79844 14.4688 7.78125 15.2359 8.95156 15.2609C8.03594 15.9781 6.88906 16.4 5.64375 16.4C5.42031 16.4 5.21406 16.3922 5 16.3672C6.18125 17.125 7.58281 17.5625 9.09219 17.5625C13.9922 17.5625 16.6734 13.5031 16.6734 9.97969C16.6734 9.86407 16.6734 9.74844 16.6656 9.63282C17.1844 9.25313 17.6391 8.78282 18.0016 8.25469Z" fill="white"/>
</g>
</svg>
